<?xml version="1.0" encoding="UTF-8"?>
<svg xmlns="http://www.w3.org/2000/svg" version="1.1" viewBox="0 0 48 48">
  <!-- Generator: Adobe Illustrator 28.6.0, SVG Export Plug-In . SVG Version: 1.2.0 Build 709)  -->
  <g>
    <g id="Layer_1">
      <circle cx="24" cy="24" r="24" fill="#4f4ff9"/>
      <g id="Yoz">
        <g>
          <path d="M9.4,15.8c0,.8-.7,1.7-1.4,2-.6.2-1,0-1.1-.6,0-.8.7-1.9,1.5-2.1.6-.2,1,.2,1,.8Z" fill="#fff"/>
          <path d="M10.9,19.2c0,.8-.7,1.8-1.4,2-.4.1-.8,0-.9-.5-.2-.8.4-2,1.2-2.3.6-.2,1.1.1,1.1.8Z" fill="#fff"/>
          <path d="M18.7,20.2c0,.9-1.1,1.9-2,1.9-.5,0-.8-.4-.7-.8.1-.8,1-1.7,1.8-1.8.5,0,.9.2.9.7Z" fill="#fff"/>
          <path d="M13.7,27.1c-.6,0-.9-.4-.9-.9,0-.6.3-1.1.9-1.4.7-.4,1.3,0,1.4.7,0,.6-.5,1.4-1.1,1.6,0,0-.2,0-.2,0Z" fill="#fff"/>
          <path d="M14.4,31.3c0,.6-.4,1.2-1,1.4-.6.2-1.2-.1-1.2-.7,0-.6.3-1.2.9-1.5.7-.3,1.3,0,1.3.8Z" fill="#fff"/>
          <path d="M5.2,22.4c0-.5.2-1,.6-1.4.2-.2.5-.3.8-.2.3.1.4.3.5.6,0,.6-.1,1.2-.6,1.7-.2.2-.5.4-.8.2-.3-.1-.4-.4-.5-.7,0,0,0-.1,0-.2Z" fill="#fff"/>
        </g>
        <path d="M37.9,26.6s0,.3-.2.8c-1,1.8-2.5,2.8-4.5,3.2-1.4.3-2.7,0-4-.3-3.1-.8-6.2-.7-9.1.8-1.1.6-2.1,1.3-2.9,2.3-.6.8-.8,1.7-1,2.7-.2,1-.3,1.9-.2,2.9,0,.5,0,.7.2,1.8-.1-.2-.3-.4-.4-.5-.9-1.3-1.4-2.8-1.3-4.4,0-2.4.9-4.5,2.8-6.2,1.2-1.1,2.6-1.7,4.2-1.9,2.1-.4,4.2-.2,6.3.2,1.2.3,2.4.7,3.6.9,2.4.5,4.5-.1,6.2-1.9.2-.2.3-.4.3-.4Z" fill="#fff"/>
        <path d="M20.9,18.6c.8-.8,1.8-1.6,2.5-2.2,2-1.6,4.2-2.9,6.5-4.1.8-.4,1.7-.7,2.7-.8,1,0,1.7.4,2.1,1.3.4.9.6,1.8.7,2.7.3,1.8.2,3.7.1,5.5,0,.4-.1.9-.1,1.3,0,.3,0,.6,0,.9.1.7.7,1.1,1.4,1.1,1.1,0,2.1-.4,2.9-1.2.5-.4.9-1,1.2-1.5s.2-.7,0-1c-.3-.4-.6-1-.8-1.5-.2-.8.4-1.5,1.3-1.7.5-.1.6-.4.3-.7,0-.1-.2-.2-.4-.3-1.4-.9-2.9-1.9-4.3-2.8-.8-.5-1.3-1.2-1.3-2.1,0-1.7-.9-2.9-2.4-3.6-1.7-.9-3.5-1.3-5.4-1.6-3.3-.4-6.5-.1-9.7.6,0,0-.3,0-.3,0,1.2,1,2.3,1.9,2.7,3.5-.1,0-.2-.1-.3-.2-1.2-.7-2.4-1.3-3.7-1.5-1.2-.2-2.5,0-3.6.5-.6.3-.9.9-1,1.6-.1,1.2.4,2.1,1.1,3,.6.7,1.2,1.3,1.8,1.9-.4,0-.8,0-1.3,0-1.4-.3-2.4-1.1-3.4-2-.3-.3-.7-.7-1-1.1-2.2,1.6-3.7,3.7-5,6,0,0,0,0,0,0,0-.3,0-.7.2-1,.5-1.9,1.4-3.5,2.7-4.9.8-.9,1.6-1.7,2.6-2.4.1,0,.2-.1.4-.2.2,1.2.6,2.4,1.6,3.2,0,0-.2-.5-.3-.6-.4-.6-.6-1.3-.7-2-.1-1,.2-1.9.9-2.6,1.8-1,3.6-1.3,5.6-.6,0,0,.5.2.5.2,0,0-.1-.3-.6-.6s-1.2-.7-1.9-.9c0,0,.1,0,.2-.1,1-.5,2.2-.8,3.3-1,2-.4,4-.6,6-.6s5.4.4,7.8,1.5c1,.5,2,1,2.8,1.8.7.6,1,1.5,1.3,2.4.2.6.3,1.2.4,1.8.2.7.6,1.2,1.2,1.7,1.6,1.1,3.1,2.1,4.6,3.2.7.4.8,1,.6,1.7-.3,1.1-.9,2-1.6,2.8s-.1.2-.2.3c-.4,1.2-1,2.4-2,3.4-1.1,1.2-2.6,1.8-4.2,2-1.1.2-2.2.2-3.4-.4s-1.1-1.3-1.1-2,.7-1.9,1.1-2.9c.3-.6.6-1.2.9-1.8.2-.5.3-1,.3-1.5-.1-1.3-1-1.9-2.1-2.2-1.1-.3-2.2-.3-3.3,0-2.2.4-4.3,1.2-6.3,2.2l-.7.4Z" fill="#fff"/>
        <path d="M27.1,9.8c-6.2,1.5-11.2,4.8-14.8,9.8-2.9,4-4.1,8.5-3.6,13.4.3,2.6,1.1,5,2.4,7.2,1.7,3,5.3,3.3,6.4,3.4-.7-.6-1.6-1.5-2.2-2.2-2.7-3.2-4.1-6.8-4.2-10.9,0-2.1.3-4.1,1-6.1.6-1.9,1.5-3.8,2.7-5.4,1.1-1.5,2.4-2.8,3.8-3.9,3.6-2.9,7.8-4.6,12.4-5.3.7-.1,1.4-.2,2.1-.3-1.7-.2-4.2,0-6.1.4Z" fill="#fff"/>
      </g>
    </g>
  </g>
</svg>