<?xml version="1.0" encoding="UTF-8"?>
<svg xmlns="http://www.w3.org/2000/svg" version="1.1" xmlns:xlink="http://www.w3.org/1999/xlink" viewBox="0 0 500 500">
  <!-- Generator: Adobe Illustrator 28.6.0, SVG Export Plug-In . SVG Version: 1.2.0 Build 709)  -->
  <g>
    <g id="Layer_3">
      <rect width="500" height="500" fill="none"/>
    </g>
    <g id="Layer_1">
      <g display="none">
        <path d="M250,499.5c-66.6,0-129.3-26-176.4-73.1C26.5,379.3.5,316.6.5,250S26.5,120.7,73.6,73.6C120.7,26.5,183.4.5,250,.5s129.3,26,176.4,73.1c47.1,47.1,73.1,109.8,73.1,176.4s-26,129.3-73.1,176.4c-47.1,47.1-109.8,73.1-176.4,73.1ZM250,32c-120.2,0-218,97.8-218,218s97.8,218,218,218,218-97.8,218-218S370.2,32,250,32Z" fill="#231f20"/>
        <polyline points="328.8 338 250 250 250 93" fill="none" stroke="#231f20" stroke-miterlimit="10" stroke-width="35"/>
      </g>
      <g display="none">
        <path d="M254.9,274.8c-75.9,0-137.6-61.5-137.6-137.2S179,.5,254.9.5s137.6,61.5,137.6,137.2-61.7,137.2-137.6,137.2ZM254.9,30.4c-59.3,0-107.6,48.1-107.6,107.2s48.3,107.2,107.6,107.2,107.6-48.1,107.6-107.2-48.3-107.2-107.6-107.2Z" fill="#231f20"/>
        <path d="M455.8,499.5H44.2c-12.1,0-23.8-5.1-32-13.9-8.2-8.7-12.4-20.6-11.6-32.5,4.2-59.4,33-113,75.1-140,28.5-18.2,64.8-22.1,97.1-10.3l19.7,6.7c37.1,12.5,77.9,12.5,114.9,0l19.7-6.7c32.3-11.8,68.6-8,97.1,10.3h0c42.2,27,70.9,80.6,75.1,140,.8,11.9-3.4,23.7-11.6,32.5-8.3,8.8-19.9,13.9-32,13.9ZM134.5,326.1c-15,0-29.9,4.2-42.6,12.3-33.8,21.6-57.9,67.5-61.4,116.9-.3,3.7,1,7.2,3.6,9.9,2.6,2.8,6.2,4.4,10.1,4.4h411.6c3.9,0,7.4-1.5,10.1-4.4,2.6-2.7,3.8-6.3,3.6-9.9-3.5-49.4-27.6-95.2-61.4-116.9-20.7-13.2-47.1-16-70.6-7.3h-.4c0,.1-19.9,6.9-19.9,6.9-43.3,14.6-90.9,14.6-134.2,0l-20.3-6.9c-9.1-3.3-18.6-5-28.1-5Z" fill="#231f20"/>
      </g>
      <g id="_x30_5-" display="none">
        <circle cx="250" cy="250" r="245" fill="#58595b"/>
      </g>
      <g id="_x30_5--2" data-name="_x30_5-" display="none">
        <path d="M18.5,126.9c22.1-52.5,72.5-93.9,129.4-92.8,177.6,3.4,85.9,151.6,227.1,190.5,127.2,35,151.8,140.8,84.7,211.8-60,63.5-247.1,14.1-345.9-53C40.8,333.9-26.4,233.5,18.5,126.9Z" fill="#414042"/>
      </g>
      <g display="none">
        <g id="_x30_5--3" data-name="_x30_5-">
          <circle cx="196.5" cy="126.3" r="45.4" fill="#fdce0b"/>
        </g>
        <g id="_x30_5--4" data-name="_x30_5-">
          <path d="M.6,211.3c1.1-30.7,18.6-61.2,47.5-71.6,90.3-32.3,72.4,60,151,52.6,70.8-6.7,103.5,42,83.3,90.6-18.1,43.5-121.9,54.5-184.6,39.6C51.5,311.4-1.7,273.7.6,211.3Z" fill="#55c7e0"/>
        </g>
        <g>
          <g id="_x30_5--5" data-name="_x30_5-">
            <circle cx="125.4" cy="241.7" r="19" fill="#dad9da"/>
          </g>
          <g id="_x30_5--6" data-name="_x30_5-">
            <circle cx="196.5" cy="241.7" r="19" fill="#dad9da"/>
          </g>
          <g id="_x30_5--7" data-name="_x30_5-">
            <circle cx="267.5" cy="241.7" r="19" fill="#dad9da"/>
          </g>
          <g id="_x30_5--8" data-name="_x30_5-">
            <circle cx="338.5" cy="241.7" r="19" fill="#dad9da"/>
          </g>
          <g id="_x30_5--9" data-name="_x30_5-">
            <circle cx="409.5" cy="241.7" r="19" fill="#dad9da"/>
          </g>
          <g id="_x30_5--10" data-name="_x30_5-">
            <circle cx="480.5" cy="241.7" r="19" fill="#dad9da"/>
          </g>
        </g>
        <g>
          <g id="_x30_5--11" data-name="_x30_5-">
            <circle cx="125.4" cy="320.9" r="19" fill="#dad9da"/>
          </g>
          <g id="_x30_5--12" data-name="_x30_5-">
            <circle cx="196.5" cy="320.9" r="19" fill="#dad9da"/>
          </g>
          <g id="_x30_5--13" data-name="_x30_5-">
            <circle cx="267.5" cy="320.9" r="19" fill="#dad9da"/>
          </g>
          <g id="_x30_5--14" data-name="_x30_5-">
            <circle cx="338.5" cy="320.9" r="19" fill="#dad9da"/>
          </g>
          <g id="_x30_5--15" data-name="_x30_5-">
            <circle cx="409.5" cy="320.9" r="19" fill="#dad9da"/>
          </g>
          <g id="_x30_5--16" data-name="_x30_5-">
            <circle cx="480.5" cy="320.9" r="19" fill="#dad9da"/>
          </g>
        </g>
        <g>
          <g id="_x30_5--17" data-name="_x30_5-">
            <circle cx="125.4" cy="400.2" r="19" fill="#dad9da"/>
          </g>
          <g id="_x30_5--18" data-name="_x30_5-">
            <circle cx="196.5" cy="400.2" r="19" fill="#dad9da"/>
          </g>
          <g id="_x30_5--19" data-name="_x30_5-">
            <circle cx="267.5" cy="400.2" r="19" fill="#dad9da"/>
          </g>
          <g id="_x30_5--20" data-name="_x30_5-">
            <circle cx="338.5" cy="400.2" r="19" fill="#dad9da"/>
          </g>
          <g id="_x30_5--21" data-name="_x30_5-">
            <circle cx="409.5" cy="400.2" r="19" fill="#dad9da"/>
          </g>
          <g id="_x30_5--22" data-name="_x30_5-">
            <circle cx="480.5" cy="400.2" r="19" fill="#dad9da"/>
          </g>
        </g>
      </g>
      <g display="none">
        <image width="1000" height="1000" transform="translate(-59.7 -53.7) scale(.6)" xlink:href="../../../Data-2/3D Icon/0-Selected/vip icon/chat-dynamic-color.png"/>
        <image width="512" height="464" transform="translate(30.2 -18) scale(1)" xlink:href="User-1.png"/>
      </g>
      <g display="none">
        <g id="Layer_1-2" data-name="Layer_1">
          <g id="Layer_1-2">
            <path d="M284.4,488.1h0c-15.2,15.2-41.1,15.2-56.3,0L20.3,280.3c-17.3-17.3-17.3-43.3,0-60.6L228.1,11.9c15.2-15.2,41.1-15.2,56.3,0h0c15.2,15.2,15.2,41.1,0,56.3L100.4,250l181.8,181.8c15.2,15.2,15.2,41.1,0,56.3h2.2ZM299.5,250l181.8,181.8c15.2,15.2,15.2,41.1,0,56.3h0c-15.2,15.2-41.1,15.2-56.3,0l-207.8-207.8c-17.3-17.3-17.3-43.3,0-60.6L425.1,11.9c15.2-15.2,41.1-15.2,56.3,0h0c15.2,15.2,15.2,41.1,0,56.3,0,0-181.8,181.8-181.8,181.8Z" fill-rule="evenodd"/>
          </g>
        </g>
      </g>
      <g display="none">
        <g id="Layer_1-3" data-name="Layer_1">
          <path d="M379.6,447.9c10.9,10.9,10.9,30.4,0,43.5h0c-10.9,10.9-30.4,10.9-43.5,0l-210.9-210.9c-17.4-17.4-17.4-43.5,0-60.9L336.2,8.7c10.9-10.9,30.4-10.9,43.5,0h0c10.9,10.9,10.9,30.4,0,43.5l-197.9,197.9,197.9,197.9Z" fill-rule="evenodd"/>
        </g>
      </g>
      <g display="none">
        <path d="M1.3,215.6l19.4-60.5c2.7-8.4,11.6-13,20-10.4l74.5,23.1c25.8,8.9,43.8,16.2,53.9,21.8,10.1,5.7,23.2,14.9,39.3,27.8l12.8,9.9c5.4,4.2,7.5,11.3,5.3,17.8l-6.2,18c-2.1,6-7.5,10.2-13.9,10.7-7,.6-13.4,1.1-19.2,1.6-8.5.8-16.8,1.2-24.8,1.2-16.9,0-42.4-5.6-76.3-16.9l-74.4-24.1c-8.4-2.7-13-11.7-10.3-20.1ZM76.1,447.1c-7.2-5.2-8.8-15.2-3.6-22.4l46.2-63.3c16.1-21.8,28.2-36.5,36.3-44.2,8.1-7.7,21.4-17.6,39.9-29.7l12.4-8.3c5.6-3.8,13-3.6,18.4.5l15.4,11.5c5.4,4,7.7,11,5.7,17.4s-2.8,10.6-3.4,15.4-.2,1.3-.3,1.9c-4.8,18.9-9.7,33.3-14.9,43.2-5.3,10.1-15.9,26.4-32.1,49l-46.3,62.4c-5.2,7-15.1,8.5-22.2,3.5l-51.6-37.1ZM220.6,209.6c-.1-.4-.3-.8-.5-1.2-7.9-18.3-12.9-33-14.9-44.2-2-11.3-3-30.7-3-58.1V27.6c0-8.8,7.2-16,16-16h63.7c8.8,0,16,7.2,16,16v78.5c0,27.4-1,46.8-3,58.1-2,11.3-7.1,26.6-15.1,46l-5.7,14.2c-2.4,6.1-8.3,10-14.8,10h-18.6c-6.6,0-12.6-4.1-14.9-10.3-1.5-4-3.2-8.9-5.1-14.6ZM271.8,370.6c-4.4-10.1-9.5-26-15.1-47.8l-3.5-14.1c-1.5-6.1.7-12.6,5.7-16.5l15.2-11.8c5.5-4.3,13.2-4.5,19-.5l14.5,10.2c16.9,10.5,29.4,19.8,37.5,27.8,8.1,8.1,19.8,23,35.1,44.8l46.2,63.3c5.2,7.2,3.6,17.2-3.6,22.4l-51.5,37c-7.1,5.1-17.1,3.5-22.2-3.6l-46.3-63.5c-16.2-21.8-26.4-37.7-30.9-47.8ZM369.3,273.1c-10.5,2.4-21,3.6-31.5,3.6s-23.8-.9-44.1-2.7c-6.3-.6-11.6-4.8-13.7-10.7l-6.2-18c-2.2-6.5,0-13.7,5.4-17.9,6.8-5.2,11.2-8.8,13.3-10.7.4-.4.8-.7,1.2-1,15-11.8,27.5-20.3,37.5-25.5,10.1-5.2,28-12.3,53.9-21.2l74.5-23.1c8.4-2.6,17.3,2,20,10.4l19.3,60.4c2.7,8.5-2,17.5-10.5,20.1l-74.2,23.1c-19.4,6.5-34.3,10.9-44.8,13.3Z"/>
      </g>
      <g display="none">
        <path d="M353.4,499.6c-63.8.2-118.5-23.5-167-63.4-54.1-44.4-103.6-93.2-143.5-151.2C12.2,240.4-1.2,190.3.7,136.5c1.5-42.7,21.5-76.8,55.5-102.3,8.8-6.6,18.6-12.8,28.9-16.3,22-7.6,42.3-2,57.5,15.4,15.5,17.8,30.2,36.5,43.4,56.1,18,26.7,15.3,58.7-4.9,83.6-5.8,7.1-11.7,14.1-17.5,21.2-8.1,9.6-9.2,20.1-3.4,31.2,26.2,50.2,64.4,88.5,114.7,114.6,10.8,5.6,21.1,4.6,30.6-3.1,7.1-5.8,14.1-11.7,21.2-17.5,26.2-21.4,59.1-23.2,86.8-3.7,17.5,12.3,34.4,25.4,50.7,39.1,22.4,18.8,28.1,47,13.2,72.2-24.9,42.1-61.2,67.9-111,72.4-2.3.2-4.6.2-6.9.2-2,0-4.1,0-6.1,0Z"/>
        <path d="M274.4.4c109.9,4.9,203.3,87.1,221.6,195.9,2,12,2.8,24.2,3.5,36.4.8,13.8-6.7,22.9-18.3,23.4-11.9.5-20-8.4-20.3-22.5-2-90.6-63.3-167.7-150.8-188.7-14.7-3.5-30.1-4.3-45.3-5.6-12.9-1.1-21.8-9.7-20.7-21.4,1-10.3,9.1-17.2,20.5-17.5,3.3,0,6.6,0,9.9,0Z"/>
        <path d="M273.4,84.9c69.4,1.9,130.8,57,140.1,126,.9,7,1.5,14.2,1.6,21.3,0,11.6-7.7,19.7-18.5,20.1-11.1.3-19.6-7.7-19.9-19.6-.8-29.2-10.7-54.7-31.1-75.7-21-21.7-46.9-32.5-77-33.5-13.9-.5-22.5-9.9-20.5-22.5,1.7-11.3,9.9-16.4,25.3-16Z"/>
      </g>
      <g display="none">
        <g>
          <path d="M463.2,402.1c0,16.6-13.5,30.1-30.1,30.1H66.9c-16.6,0-30.1-13.5-30.1-30.1s1.6-11.2,4.5-15.9c2.9-4.7,7.1-8.6,12.2-11.1,10.9-5.4,19.8-13.7,25.9-23.6,6.2-10,9.6-21.6,9.6-33.7v-118c0-75.8,52.4-139.4,123-156.5-.2-1.5-.3-3-.3-4.5C211.8,17.6,228.9.5,250,.5s38.2,17.1,38.2,38.2,0,3-.3,4.5c29.2,7.1,55.3,22.1,75.9,42.6,29.1,29.1,47.1,69.4,47.1,113.8v118c0,24.3,13.8,46.5,35.5,57.4,5.1,2.6,9.3,6.4,12.2,11.1,2.9,4.7,4.5,10.1,4.5,15.9Z" fill="#231f20"/>
          <path d="M302.6,446.9c0,29.1-23.6,52.6-52.6,52.6s-52.6-23.6-52.6-52.6h105.3Z" fill="#231f20"/>
        </g>
      </g>
      <g>
        <path d="M499.5,250c0,79.1-36.8,149.5-94.2,195.2-42.6,34-96.6,54.3-155.3,54.3s-112.7-20.3-155.3-54.3C37.3,399.5.5,329.1.5,250,.5,112.2,112.2.5,250,.5s249.5,111.7,249.5,249.5Z" fill="#f1f2f2"/>
        <circle cx="250" cy="194.2" r="104.9" fill="#d1d3d4"/>
        <path d="M405.3,445.2c-42.6,34-96.6,54.3-155.3,54.3s-112.7-20.3-155.3-54.3c20.2-66.7,82.1-115.2,155.3-115.2s135.2,48.5,155.3,115.2Z" fill="#d1d3d4"/>
      </g>
    </g>
    <g id="icon_Social_Media" display="none">
      <g>
        <path d="M372,228.3c-34.4,15.4-69,91.7-119.6,75.2-4.2,3-13.8,15.1-14.4,24.4-17.5-2.3-37.7-22.4-35.2-44-29.1-21.1-5.1-60,18-75.6,49.5-33.5,118.2-4.7,80,19.3-23.2,14.6-72.9,24.2-67.8-11.6-13.6,3.9-22.4,29.4-5.9,42.6-15.2,14.9-12.3,42.4,4,51.4,16.4-42.6,73.7-37,96.8-87.9,17.4-38.2-8.4-81.8-59.9-75.1-38.9,5.1-75.4,37.9-93.6,76.8-18.5,39.5-15.8,92.4,22.2,119,44.7,31.4,92.3,2.3,121.2-35.6,17-22.4,31.8-47.2,54.4-61.5v-17.4Z" fill="#fff"/>
        <path d="M317.6,307.1c-28.8,38-76.4,67-121.2,35.6-38-26.7-40.8-79.5-22.2-119,18.2-38.9,54.7-71.7,93.6-76.8,51.6-6.7,77.3,36.9,59.9,75.1-23.1,50.8-80.3,45.3-96.8,87.9-16.3-9-19.2-36.5-4-51.4-16.4-13.2-7.7-38.7,5.9-42.6-5.2,35.8,44.5,26.2,67.8,11.6,38.2-24-30.5-52.8-80-19.3-23.1,15.7-47.1,54.5-18,75.6-2.4,21.6,17.8,41.7,35.2,44,.7-9.2,10.3-21.4,14.4-24.4,50.5,16.6,85.2-59.7,119.6-75.2v-33.6c0-38.3-31.4-69.6-69.7-69.6h-104.5c-38.3,0-69.7,31.4-69.7,69.7v110.6c0,38.3,31.4,69.7,69.7,69.7h104.5c38.3,0,69.7-31.4,69.7-69.7v-59.6c-22.5,14.3-37.4,39.1-54.4,61.5Z" fill="#ee7f22"/>
      </g>
    </g>
  </g>
</svg>